<?xml version="1.0" encoding="UTF-8"?>
<svg id="Calque_10" data-name="Calque 10" xmlns="http://www.w3.org/2000/svg" viewBox="0 0 933.56 629.54">
  <defs>
    <style>
      .cls-1 {
        fill: #fff;
      }

      .cls-2 {
        fill: rgba(29, 30, 28, .15);
      }

      .cls-3 {
        fill: #f7ac32;
      }

      .cls-4 {
        fill: #ece554;
      }

      .cls-5 {
        fill: #3ba936;
      }

      .cls-6 {
        fill: #e31314;
      }

      .cls-7 {
        fill: none;
        stroke: #202548;
        stroke-miterlimit: 10;
        stroke-width: 2px;
      }

      .cls-8 {
        fill: #282f61;
      }

      .cls-9 {
        fill: #60c5f0;
      }

      .cls-10 {
        fill: #181e37;
      }

      .cls-11 {
        fill: #ca7fb3;
      }
    </style>
  </defs>
  <path class="cls-7" d="m867.72,116.51c-20.46,7.54-14.78,48.08,9.86,31.4,8.78-5.94-2.96-24.53-13.8-10.79-8.23,10.43,22.04,34.88,23.65,44.15,4.13,23.77-32.52,15.7-32.52,5.89,0-15.26,16.76-11.82,19.71-2.94,4.51,13.57-39.56,14.76-38.44,30.42.99,13.74,41.83,16.7,44.35,32.38,2.52,15.67-43.91,18.49-47.68,40.73-3.57,21.08,39.79,12.25,27.97,62.29-5.18,21.92,14.78,27.47,20.7,36.3,9.5,14.19,5.87,28.82,3.94,32.38-15.2,28.1-46.59-4.46-30.55-11.77,12.09-5.52,25.21,3.87,26.61,14.72,3.14,24.44-21.54,18.9-25.62,39.25-2.96,14.72,10.42,25.65,16.75,29.43,27.9,16.67,10.9,44.27-2.96,46.11-41.09,5.45-28.12,38.46-14.78,44.15,6.9,2.94,25.18-6.06,22.67-23.55-.99-6.87-17.33-15.8-33.51-5.89-12.81,7.85-2.96,30.42-28.58,33.36-23.58,2.71-31.03-29.46-47.3-29.43-21.44.04-36.97,19.14-28.58,27.47,10.15,10.08,23.86,1.98,24.64-8.83.99-13.74-24.47-21.57-37.47-22.57-10.95-.84-36.74,1.11-29.55,27.48,2.23,8.19,15.77,12.75,17.74,0,.91-5.9-13.8-31.4-33.51-34.34-25.37-3.79-38.7,8.9-27.59,29.43,6.9,12.75-9.86,13.74-22.67,11.77-16.84-2.58-22.21-26.65-37.45-25.51-18.96,1.42-22.67,20.6-32.52,23.55-16.94,5.06-29.13-5.02-31.54-9.81-3.49-6.95,6.61-16.04,16.75-8.83,6.9,4.91-11.28,16.32-20.7,16.68-16.01.61-13.8-16.68-28.58-18.64-9.62-1.28-4.93,22.57-18.72,21.58-14.69-1.04-21.68-31.4-34.49-32.38-8.84-.68-12.37,10.23-12.81,11.77-3.1,10.81-1.72,19.62-9.86,19.62s-13.06-14.81-14.78-17.66c-8.87-14.72-56.29-16.73-69.65.65-6.75,8.78,2.48,19.8,11.51,18.97,15.29-1.39,19.36-11.65,13.41-19.44-12.12-15.86-27.3-15.47-35.09-13.92-9.86,1.96-31.54,8.83-26.61,21.58,3.48,9.02-7.88,15.7-13.8,8.83-4.3-5,2.99-24.53-10.84-24.53-11.83,0-10.84,12.75-8.87,18.64,3.25,9.72-7.88,13.74-11.83,2.94-4.1-11.22-9.86-14.72-20.7-18.64-18.86-6.83-22.74,21.58-33.51,21.58-10.1,0-33.19-30.82-4.93-26.49,25.62,3.92-8.38,27.58-19.71,28.45-19.61,1.51-32.91-28.37-39.42-29.43-11.28-1.84-21.68,50.04-37.45,20.6-11.59-21.64-30.75-30.38-36.46-25.51-6.9,5.89-4.04,15.65,3.94,19.62,9.86,4.91,20.7-.98,17.74-14.72-2.69-12.51-6.9-20.6-18.51-26.72-9.64-5.08-15.99-9.58-15-17.43,1.83-14.6,19.71-4.91,20.7-22.57.66-11.8-26.61-4.91-25.62-24.53.79-15.71,9.86-12.75,16.75-24.53,8.24-14.07-8.77-37.86-12.81-22.57-4.93,18.64,19.15,12.74,27.59-10.79,4.93-13.74-28.58-6.73-28.58-20.6,0-17.66,31.54-13.74,12.81-31.4-8.59-8.1-22.67-46.11.99-46.11,10.84,0,8.87,26.49-4.93,22.57-16.58-4.71-10.36-25.18-8.87-31.4,4.93-20.6,22.02-19.85,23.65-49.06.99-17.66-25.76-23.38-21.68-47.09,4.08-23.71,33.03-8.73,35.48-22.57,2.96-16.68-21.68-9.81-29.57-16.68-16.93-14.75-12.39-57.12,3.94-51.02,16.33,6.1,19.43,30.39-.99,21.58-13.57-5.86-13.85-39.98-1.97-53.96,10.84-12.75,23.28-.64,30.55-2.94,13.28-4.21,12.73-22.93,22.67-17.66,7.17,3.8,7.91,18.64,20.7,19.62,6.63.51,13.12-1.46,16.75-14.72,2.96-10.79,19.71-7.85,26.61-2.94,8.68,6.17,20.49,18.36,29.57,14.72,7.83-3.14,40.23-8.72,38.44-17.66-.99-4.91-25.62-9.81-23.65,3.92,1.25,8.71,20.2,24.98,26.61,24.53,12.54-.89,12.59-30.12,21.68-32.38,11.83-2.94,16.91,8.3,19.71,15.7,12.51,33.1,22.67,18.64,22.67-2.94,0-10.84,7.48-19.52,28.58-6.87,13.04,7.82,55.46-.77,43.36,14.72-13.8,17.66-35.48-5.89-22.85-12.12,25.73-12.7,27.43-13.89,51.73,7.55,18.88,16.67,19.41-20.94,44.05-16.03,17.36,3.46,18.67,10.88,22.38,16.26,8.14,11.83,22.59,14.87,27.96,7.28,7.32-10.33,4.79-15.24,11.26-21.5,13.72-13.28,32.38,5.31,56.66,16.6,21.77,10.11,12.4-14.38,33.51-14.72,14.81-.23,28.14,10.39,34.49,11.77,23.83,5.2,36.96-15.88,21.68-16.68-18.72-.98-12.4,15.71-2.96,21.58,7.88,4.91,11.83-7.85,29.57-6.87,23.94,1.32,19.13-3.25,26.61-8.83,11.83-8.83,38.44-2.94,43.36,8.83,4.1,9.8-4.82,11.54-15.77,12.75-8.87.98-14.78-9.81-6.9-18.64,9.44-10.58,52.23-10.79,55.19,2.94,4.71,21.88,26.96,5.9,30.55-3.92,3.94-10.79,19.71-4.91,16.75,3.92-5.95,17.78,11.53,25.53,20.7,12.75,4.93-6.87,14.78-3.92,18.72,3.92,3.79,7.55,3.03,29.23-10.84,34.34Z"/>
  <g>
    <path class="cls-11" d="m205.23,93.1c.21-6.25-1.91-8.51-5.53-8.63s-5.34,2-5.55,8.26,3.52,13.47,4.91,13.52c1.39.05,5.96-6.89,6.18-13.14Z"/>
    <path class="cls-8" d="m204.79,86.78l.31-9c.01-.3-.23-.56-.53-.57,0,0-2.75-.47-4.49-.52-1.74-.06-4.51.22-4.51.22-.3-.01-.56.23-.57.53l-.31,9c-.01.3.23.56.53.57l9,.31c.3.01.56-.23.57-.53Z"/>
    <path class="cls-10" d="m205.51,87.43l-.7-1.33s-2.72.18-5.04.11h-.02c-2.31-.08-5.04-.45-5.04-.45l-.75,1.28,11.54.39Z"/>
    <path class="cls-2" d="m205.51,87.43l-.7-1.33.28-8.32c.01-.3-.23-.56-.53-.57,0,0-2.75-.47-4.49-.52l-.36,10.54,5.79.2Z"/>
    <path class="cls-2" d="m205.23,93.1c.21-6.25-1.91-8.51-5.53-8.63-.51-.02-.99,0-1.42.09,3.57.76,5.59,3.81,5.35,10.72-.1,2.79-.88,5.68-1.92,8.26,1.66-2.58,3.4-6.64,3.53-10.44Z"/>
    <ellipse class="cls-1" cx="197.18" cy="100.28" rx=".39" ry="2.04" transform="translate(-21.26 65.35) rotate(-17.87)"/>
  </g>
  <g>
    <path class="cls-11" d="m489.68,65.03c-.21,6.25,1.91,8.51,5.53,8.63,3.62.12,5.34-2,5.55-8.26.21-6.25-3.52-13.47-4.91-13.52s-5.96,6.89-6.18,13.14Z"/>
    <path class="cls-8" d="m490.13,71.34l-.31,9c-.01.3.23.56.53.57,0,0,2.75.47,4.49.52,1.74.06,4.51-.22,4.51-.22.3.01.56-.23.57-.53l.31-9c.01-.3-.23-.56-.53-.57l-9-.31c-.3-.01-.56.23-.57.53Z"/>
    <path class="cls-10" d="m489.4,70.7l.7,1.33s2.72-.18,5.04-.11h.02c2.31.08,5.04.45,5.04.45l.75-1.28-11.54-.39Z"/>
    <path class="cls-2" d="m489.4,70.7l.7,1.33-.28,8.32c-.01.3.23.56.53.57,0,0,2.75.47,4.49.52l.36-10.54-5.79-.2Z"/>
    <path class="cls-2" d="m489.68,65.03c-.21,6.25,1.91,8.51,5.53,8.63.51.02.99,0,1.42-.09-3.57-.76-5.59-3.81-5.35-10.72.1-2.79.88-5.68,1.92-8.26-1.66,2.58-3.4,6.64-3.53,10.44Z"/>
    <ellipse class="cls-1" cx="497.73" cy="57.84" rx=".39" ry="2.04" transform="translate(6.27 155.53) rotate(-17.87)"/>
  </g>
  <g>
    <path class="cls-11" d="m821.75,86.33c-2.95-5.52-5.92-6.41-9.11-4.7-3.19,1.71-3.62,4.41-.67,9.93,2.95,5.52,9.79,9.9,11.02,9.24,1.23-.66,1.71-8.95-1.24-14.47Z"/>
    <path class="cls-8" d="m818.2,81.08l-4.24-7.94c-.14-.27-.48-.37-.74-.23,0,0-2.61.97-4.15,1.79-1.53.82-3.79,2.45-3.79,2.45-.27.14-.37.48-.23.74l4.24,7.94c.14.27.48.37.74.23l7.94-4.24c.27-.14.37-.48.23-.74Z"/>
    <path class="cls-10" d="m819.15,81.28l-1.27-.8s-2.26,1.52-4.31,2.61h-.02c-2.04,1.1-4.59,2.15-4.59,2.15v1.48s10.18-5.44,10.18-5.44Z"/>
    <path class="cls-2" d="m819.15,81.28l-1.27-.8-3.92-7.34c-.14-.27-.48-.37-.74-.23,0,0-2.61.97-4.15,1.79l4.97,9.3,5.11-2.73Z"/>
    <path class="cls-2" d="m821.75,86.33c-2.95-5.52-5.92-6.41-9.11-4.7-.45.24-.85.5-1.19.79,3.47-1.13,6.75.5,10.01,6.6,1.31,2.46,2.09,5.36,2.47,8.11.14-3.07-.38-7.44-2.18-10.8Z"/>
    <ellipse class="cls-1" cx="818.38" cy="96.58" rx=".39" ry="2.04" transform="translate(198.41 639.46) rotate(-47.94)"/>
  </g>
  <g>
    <path class="cls-11" d="m844.06,355.54c6.19.95,8.68-.9,9.23-4.48.55-3.58-1.36-5.54-7.55-6.48-6.19-.95-13.79,1.91-14,3.29-.21,1.38,6.14,6.73,12.32,7.68Z"/>
    <path class="cls-8" d="m850.39,355.84l8.9,1.36c.3.05.58-.16.63-.46,0,0,.79-2.68,1.05-4.39.26-1.72.31-4.51.31-4.51.05-.3-.16-.58-.46-.63l-8.9-1.36c-.3-.05-.58.16-.63.46l-1.36,8.9c-.05.3.16.58.46.63Z"/>
    <path class="cls-10" d="m849.66,356.48l1.4-.54s.14-2.72.49-5.02v-.02c.35-2.29,1.04-4.95,1.04-4.95l-1.18-.89-1.75,11.42Z"/>
    <path class="cls-2" d="m849.66,356.48l1.4-.54,8.23,1.26c.3.05.58-.16.63-.46,0,0,.79-2.68,1.05-4.39l-10.42-1.6-.88,5.73Z"/>
    <path class="cls-2" d="m844.06,355.54c6.19.95,8.68-.9,9.23-4.48.08-.51.11-.98.08-1.43-1.18,3.45-4.44,5.1-11.28,4.06-2.76-.42-5.54-1.54-7.98-2.88,2.37,1.95,6.19,4.15,9.95,4.73Z"/>
    <ellipse class="cls-1" cx="837.87" cy="346.7" rx="2.04" ry=".39" transform="translate(-51.14 168.15) rotate(-11.12)"/>
  </g>
  <g>
    <path class="cls-11" d="m678.9,560.66c.21-6.25-1.91-8.51-5.53-8.63-3.62-.12-5.34,2-5.55,8.26-.21,6.25,3.52,13.47,4.91,13.52,1.39.05,5.96-6.89,6.18-13.14Z"/>
    <path class="cls-8" d="m678.46,554.34l.31-9c.01-.3-.23-.56-.53-.57,0,0-2.75-.47-4.49-.52-1.74-.06-4.51.22-4.51.22-.3-.01-.56.23-.57.53l-.31,9c-.01.3.23.56.53.57l9,.31c.3.01.56-.23.57-.53Z"/>
    <path class="cls-10" d="m679.18,554.99l-.7-1.33s-2.72.18-5.04.11h-.02c-2.31-.08-5.04-.45-5.04-.45l-.75,1.28,11.54.39Z"/>
    <path class="cls-2" d="m679.18,554.99l-.7-1.33.28-8.32c.01-.3-.23-.56-.53-.57,0,0-2.75-.47-4.49-.52l-.36,10.54,5.79.2Z"/>
    <path class="cls-2" d="m678.9,560.66c.21-6.25-1.91-8.51-5.53-8.63-.51-.02-.99,0-1.42.09,3.57.76,5.59,3.81,5.35,10.72-.1,2.79-.88,5.68-1.92,8.26,1.66-2.58,3.4-6.64,3.53-10.44Z"/>
    <ellipse class="cls-1" cx="670.85" cy="567.85" rx=".39" ry="2.04" transform="translate(-141.89 233.27) rotate(-17.87)"/>
  </g>
  <g>
    <path class="cls-11" d="m374.53,538.38c-.44,6.24,1.61,8.57,5.22,8.83,3.61.25,5.41-1.81,5.84-8.05.44-6.24-3.03-13.59-4.42-13.69-1.39-.1-6.21,6.67-6.64,12.91Z"/>
    <path class="cls-8" d="m374.74,544.71l-.63,8.98c-.02.3.21.57.51.59,0,0,2.73.56,4.46.69,1.73.12,4.52-.06,4.52-.06.3.02.57-.21.59-.51l.63-8.98c.02-.3-.21-.57-.51-.59l-8.98-.63c-.3-.02-.57.21-.59.51Z"/>
    <path class="cls-10" d="m374.05,544.04l.65,1.35s2.73-.09,5.04.08h.02c2.31.16,5.02.63,5.02.63l.79-1.25-11.52-.81Z"/>
    <path class="cls-2" d="m374.05,544.04l.65,1.35-.58,8.3c-.02.3.21.57.51.59,0,0,2.73.56,4.46.69l.74-10.52-5.78-.4Z"/>
    <path class="cls-2" d="m374.53,538.38c-.44,6.24,1.61,8.57,5.22,8.83.51.04.99.03,1.43-.04-3.54-.89-5.45-4.01-4.97-10.91.19-2.78,1.08-5.65,2.22-8.19-1.75,2.52-3.63,6.51-3.9,10.3Z"/>
    <ellipse class="cls-1" cx="382.83" cy="531.49" rx=".39" ry="2.04" transform="translate(-130.38 124.48) rotate(-15.82)"/>
  </g>
  <g>
    <path class="cls-11" d="m77.38,516.32c-3.95,4.85-3.62,7.94-.81,10.22,2.81,2.29,5.46,1.63,9.41-3.22,3.95-4.85,5.34-12.86,4.26-13.74s-8.91,1.88-12.87,6.73Z"/>
    <path class="cls-8" d="m73.91,521.62l-5.68,6.98c-.19.24-.16.58.08.77,0,0,1.91,2.03,3.26,3.13,1.35,1.1,3.72,2.55,3.72,2.55.24.19.58.16.77-.08l5.68-6.98c.19-.24.16-.58-.08-.77l-6.98-5.68c-.24-.19-.58-.16-.77.08Z"/>
    <path class="cls-10" d="m73.73,520.67l-.25,1.48s2.28,1.5,4.08,2.96h.02c1.79,1.48,3.74,3.42,3.74,3.42l1.37-.56-8.96-7.29Z"/>
    <path class="cls-2" d="m73.73,520.67l-.25,1.48-5.25,6.45c-.19.24-.16.58.08.77,0,0,1.91,2.03,3.26,3.13l6.66-8.18-4.49-3.66Z"/>
    <path class="cls-2" d="m77.38,516.32c-3.95,4.85-3.62,7.94-.81,10.22.4.32.79.59,1.19.79-2.38-2.76-2.15-6.42,2.22-11.78,1.76-2.16,4.13-4,6.53-5.42-2.88,1.06-6.72,3.23-9.12,6.18Z"/>
    <ellipse class="cls-1" cx="88.14" cy="515.46" rx="2.04" ry=".39" transform="translate(-427.44 428.04) rotate(-70.67)"/>
  </g>
  <g>
    <path class="cls-11" d="m81.89,275.71c-5.41-3.15-8.4-2.35-10.23.78-1.83,3.13-.77,5.65,4.64,8.8,5.41,3.15,13.53,3.29,14.23,2.09s-3.23-8.52-8.64-11.67Z"/>
    <path class="cls-8" d="m76.12,273.1l-7.78-4.54c-.26-.15-.6-.06-.75.2,0,0-1.71,2.2-2.59,3.7-.88,1.5-1.95,4.07-1.95,4.07-.15.26-.06.6.2.75l7.78,4.54c.26.15.6.06.75-.2l4.54-7.78c.15-.26.06-.6-.2-.75Z"/>
    <path class="cls-10" d="m77.03,272.77h-1.5s-1.13,2.47-2.3,4.47v.02c-1.18,2-2.79,4.22-2.79,4.22l.77,1.26,5.82-9.98Z"/>
    <path class="cls-2" d="m77.03,272.77h-1.5s-7.19-4.21-7.19-4.21c-.26-.15-.6-.06-.75.2,0,0-1.71,2.2-2.59,3.7l9.11,5.31,2.92-5.01Z"/>
    <path class="cls-2" d="m81.89,275.71c-5.41-3.15-8.4-2.35-10.23.78-.26.44-.46.87-.6,1.3,2.36-2.78,6.01-3.11,11.98.37,2.41,1.41,4.59,3.47,6.36,5.61-1.49-2.68-4.23-6.14-7.52-8.05Z"/>
    <ellipse class="cls-1" cx="84.4" cy="286.2" rx=".39" ry="2.04" transform="translate(-212.36 317.36) rotate(-79.56)"/>
  </g>
  <g>
    <path class="cls-6" d="m295.55,51.25c-5.63,2.74-6.63,5.67-5.05,8.93,1.58,3.26,4.27,3.78,9.89,1.05,5.63-2.74,10.26-9.41,9.66-10.66-.61-1.25-8.88-2.05-14.5.68Z"/>
    <path class="cls-8" d="m290.17,54.59l-8.1,3.94c-.27.13-.39.46-.25.74,0,0,.87,2.65,1.63,4.21.76,1.56,2.3,3.89,2.3,3.89.13.27.46.39.74.25l8.1-3.94c.27-.13.39-.46.25-.74l-3.94-8.1c-.13-.27-.46-.39-.74-.25Z"/>
    <path class="cls-10" d="m290.41,53.65l-.84,1.24s1.43,2.32,2.45,4.4v.02c1.02,2.08,1.97,4.66,1.97,4.66l1.48.06-5.05-10.39Z"/>
    <path class="cls-2" d="m290.41,53.65l-.84,1.24-7.48,3.64c-.27.13-.39.46-.25.74,0,0,.87,2.65,1.63,4.21l9.48-4.61-2.53-5.21Z"/>
    <path class="cls-2" d="m295.55,51.25c-5.63,2.74-6.63,5.67-5.05,8.93.22.46.47.87.74,1.22-.99-3.51.76-6.72,6.98-9.75,2.51-1.22,5.43-1.88,8.2-2.16-3.06-.26-7.45.1-10.87,1.76Z"/>
    <ellipse class="cls-1" cx="305.67" cy="55" rx="2.04" ry=".39" transform="translate(52.96 235.56) rotate(-45.75)"/>
  </g>
  <g>
    <path class="cls-6" d="m690.57,82.39c-2.03-5.92-4.83-7.27-8.25-6.09-3.42,1.18-4.27,3.78-2.24,9.7s8.09,11.33,9.41,10.87,3.11-8.56,1.08-14.48Z"/>
    <path class="cls-8" d="m687.9,76.65l-2.93-8.51c-.1-.29-.41-.44-.7-.34,0,0-2.73.55-4.38,1.11-1.64.56-4.14,1.81-4.14,1.81-.29.1-.44.41-.34.7l2.93,8.51c.1.29.41.44.7.34l8.51-2.93c.29-.1.44-.41.34-.7Z"/>
    <path class="cls-10" d="m688.8,77l-1.13-.99s-2.48,1.14-4.67,1.9h-.02c-2.19.76-4.87,1.39-4.87,1.39l-.24,1.46,10.92-3.75Z"/>
    <path class="cls-2" d="m688.8,77l-1.13-.99-2.71-7.87c-.1-.29-.41-.44-.7-.34,0,0-2.73.55-4.38,1.11l3.43,9.97,5.48-1.88Z"/>
    <path class="cls-2" d="m690.57,82.39c-2.03-5.92-4.83-7.27-8.25-6.09-.49.17-.92.36-1.3.59,3.6-.56,6.58,1.57,8.83,8.1.91,2.64,1.21,5.62,1.15,8.4.63-3,.8-7.41-.43-11.01Z"/>
    <ellipse class="cls-1" cx="685.61" cy="91.98" rx=".39" ry="2.04" transform="translate(93.6 449.82) rotate(-38.79)"/>
  </g>
  <g>
    <path class="cls-6" d="m509.36,550.11c-3.81,4.97-3.39,8.04-.52,10.24,2.87,2.2,5.51,1.47,9.32-3.49,3.81-4.97,4.97-13.01,3.86-13.85-1.11-.85-8.86,2.14-12.66,7.1Z"/>
    <path class="cls-8" d="m506.05,555.51l-5.48,7.14c-.19.24-.14.59.1.77,0,0,1.97,1.98,3.35,3.03,1.38,1.06,3.8,2.44,3.8,2.44.24.19.59.14.77-.1l5.48-7.14c.19-.24.14-.59-.1-.77l-7.14-5.48c-.24-.19-.59-.14-.77.1Z"/>
    <path class="cls-10" d="m505.84,554.56l-.2,1.48s2.32,1.43,4.16,2.84h.02c1.84,1.42,3.84,3.31,3.84,3.31l1.35-.6-9.16-7.03Z"/>
    <path class="cls-2" d="m505.84,554.56l-.2,1.48-5.06,6.6c-.19.24-.14.59.1.77,0,0,1.97,1.98,3.35,3.03l6.42-8.37-4.6-3.53Z"/>
    <path class="cls-2" d="m509.36,550.11c-3.81,4.97-3.39,8.04-.52,10.24.41.31.81.57,1.21.76-2.46-2.69-2.33-6.35,1.87-11.84,1.7-2.21,4.01-4.12,6.37-5.6-2.85,1.14-6.62,3.43-8.93,6.44Z"/>
    <ellipse class="cls-1" cx="520.09" cy="548.94" rx="2.04" ry=".39" transform="translate(-160.78 877.96) rotate(-72.34)"/>
  </g>
  <g>
    <path class="cls-6" d="m90.87,413.91c-5.62-2.75-8.55-1.74-10.14,1.52-1.59,3.25-.36,5.69,5.26,8.44,5.62,2.75,13.73,2.3,14.34,1.05.61-1.25-3.84-8.26-9.46-11.01Z"/>
    <path class="cls-8" d="m84.93,411.73l-8.08-3.96c-.27-.13-.6-.02-.74.25,0,0-1.55,2.32-2.31,3.88-.76,1.56-1.65,4.21-1.65,4.21-.13.27-.02.6.25.74l8.08,3.96c.27.13.6.02.74-.25l3.96-8.08c.13-.27.02-.6-.25-.74Z"/>
    <path class="cls-10" d="m85.81,411.33l-1.49.09s-.95,2.56-1.97,4.64v.02c-1.03,2.08-2.48,4.41-2.48,4.41l.86,1.2,5.08-10.37Z"/>
    <path class="cls-2" d="m85.81,411.33l-1.49.09-7.47-3.66c-.27-.13-.6-.02-.74.25,0,0-1.55,2.32-2.31,3.88l9.47,4.64,2.55-5.2Z"/>
    <path class="cls-2" d="m90.87,413.91c-5.62-2.75-8.55-1.74-10.14,1.52-.23.46-.4.91-.5,1.34,2.16-2.94,5.77-3.54,11.97-.5,2.51,1.23,4.83,3.12,6.75,5.13-1.68-2.57-4.67-5.81-8.08-7.49Z"/>
    <ellipse class="cls-1" cx="94.14" cy="424.19" rx=".39" ry="2.04" transform="translate(-337.81 471.39) rotate(-83.72)"/>
  </g>
  <g>
    <path class="cls-5" d="m106.85,83.78c-3.68-5.06-6.75-5.53-9.68-3.39-2.93,2.13-2.97,4.87.71,9.92,3.68,5.06,11.07,8.45,12.19,7.63s.46-9.1-3.23-14.16Z"/>
    <path class="cls-8" d="m102.61,79.07l-5.3-7.28c-.18-.25-.52-.3-.77-.12,0,0-2.45,1.33-3.86,2.35-1.4,1.02-3.42,2.95-3.42,2.95-.25.18-.3.52-.12.77l5.3,7.28c.18.25.52.3.77.12l7.28-5.3c.25-.18.3-.52.12-.77Z"/>
    <path class="cls-10" d="m103.57,79.14l-1.37-.61s-2.03,1.82-3.9,3.19h-.02c-1.87,1.37-4.25,2.76-4.25,2.76l.2,1.47,9.34-6.8Z"/>
    <path class="cls-2" d="m103.57,79.14l-1.37-.61-4.9-6.73c-.18-.25-.52-.3-.77-.12,0,0-2.45,1.33-3.86,2.35l6.21,8.52,4.68-3.41Z"/>
    <path class="cls-2" d="m106.85,83.78c-3.68-5.06-6.75-5.53-9.68-3.39-.41.3-.77.62-1.07.95,3.28-1.6,6.75-.44,10.82,5.15,1.64,2.26,2.81,5.02,3.57,7.69-.29-3.06-1.41-7.32-3.65-10.39Z"/>
    <ellipse class="cls-1" cx="104.93" cy="94.4" rx=".39" ry="2.04" transform="translate(-32.07 128.35) rotate(-55.89)"/>
  </g>
  <g>
    <path class="cls-5" d="m156.73,552.81c-4.72,4.11-4.92,7.21-2.54,9.94s5.11,2.54,9.82-1.57c4.72-4.11,7.45-11.76,6.53-12.81-.92-1.05-9.1.34-13.82,4.45Z"/>
    <path class="cls-8" d="m152.41,557.45l-6.79,5.91c-.23.2-.25.55-.05.78,0,0,1.54,2.33,2.68,3.64,1.14,1.31,3.24,3.15,3.24,3.15.2.23.55.25.78.05l6.79-5.91c.23-.2.25-.55.05-.78l-5.91-6.79c-.2-.23-.55-.25-.78-.05Z"/>
    <path class="cls-10" d="m152.39,556.48l-.49,1.41s1.99,1.86,3.51,3.61v.02c1.53,1.75,3.12,3.99,3.12,3.99l1.44-.32-7.59-8.71Z"/>
    <path class="cls-2" d="m152.39,556.48l-.49,1.41-6.27,5.47c-.23.2-.25.55-.05.78,0,0,1.54,2.33,2.68,3.64l7.95-6.93-3.81-4.37Z"/>
    <path class="cls-2" d="m156.73,552.81c-4.72,4.11-4.92,7.21-2.54,9.94.34.39.68.72,1.04.98-1.88-3.13-1.03-6.69,4.19-11.23,2.1-1.83,4.75-3.24,7.35-4.23-3.02.55-7.17,2.04-10.04,4.54Z"/>
    <ellipse class="cls-1" cx="167.48" cy="553.8" rx="2.04" ry=".39" transform="translate(-397.86 430.76) rotate(-60.9)"/>
  </g>
  <g>
    <path class="cls-5" d="m805.74,567.25c-.21,6.25,1.91,8.51,5.53,8.63,3.62.12,5.34-2,5.55-8.26.21-6.25-3.52-13.47-4.91-13.52-1.39-.05-5.96,6.89-6.18,13.14Z"/>
    <path class="cls-8" d="m806.18,573.57l-.31,9c-.01.3.23.56.53.57,0,0,2.75.47,4.49.52s4.51-.22,4.51-.22c.3.01.56-.23.57-.53l.31-9c.01-.3-.23-.56-.53-.57l-9-.31c-.3-.01-.56.23-.57.53Z"/>
    <path class="cls-10" d="m805.46,572.93l.7,1.33s2.72-.18,5.04-.11h.02c2.31.08,5.04.45,5.04.45l.75-1.28-11.54-.39Z"/>
    <path class="cls-2" d="m805.46,572.93l.7,1.33-.28,8.32c-.01.3.23.56.53.57,0,0,2.75.47,4.49.52l.36-10.54-5.79-.2Z"/>
    <path class="cls-2" d="m805.74,567.25c-.21,6.25,1.91,8.51,5.53,8.63.51.02.99,0,1.42-.09-3.57-.76-5.59-3.81-5.35-10.72.1-2.79.88-5.68,1.92-8.26-1.66,2.58-3.4,6.64-3.53,10.44Z"/>
    <ellipse class="cls-1" cx="813.79" cy="560.07" rx=".39" ry="2.04" transform="translate(-132.6 276.76) rotate(-17.87)"/>
  </g>
  <g>
    <path class="cls-5" d="m860.44,171.63c5.2-3.48,5.8-6.52,3.78-9.53-2.01-3.01-4.74-3.17-9.95.31-5.2,3.48-8.89,10.71-8.12,11.87s9.07.83,14.28-2.65Z"/>
    <path class="cls-8" d="m865.32,167.58l7.49-5c.25-.17.32-.51.15-.76,0,0-1.23-2.5-2.19-3.95-.97-1.44-2.81-3.54-2.81-3.54-.17-.25-.51-.32-.76-.15l-7.49,5c-.25.17-.32.51-.15.76l5,7.49c.17.25.51.32.76.15Z"/>
    <path class="cls-10" d="m865.21,168.54l.67-1.34s-1.74-2.1-3.02-4.03v-.02c-1.3-1.93-2.59-4.35-2.59-4.35l-1.47.14,6.41,9.6Z"/>
    <path class="cls-2" d="m865.21,168.54l.67-1.34,6.92-4.62c.25-.17.32-.51.15-.76,0,0-1.23-2.5-2.19-3.95l-8.77,5.86,3.22,4.82Z"/>
    <path class="cls-2" d="m860.44,171.63c5.2-3.48,5.8-6.52,3.79-9.53-.29-.43-.58-.8-.9-1.11,1.46,3.34.16,6.76-5.58,10.6-2.32,1.55-5.13,2.6-7.83,3.26,3.06-.16,7.37-1.11,10.53-3.22Z"/>
    <ellipse class="cls-1" cx="849.91" cy="169.28" rx="2.04" ry=".39" transform="translate(208.93 752.5) rotate(-53.56)"/>
  </g>
  <g>
    <path class="cls-9" d="m617.29,77.32c1.95-5.95.54-8.71-2.91-9.84-3.44-1.13-5.69.43-7.63,6.38-1.95,5.95-.38,13.92.94,14.35,1.32.43,7.65-4.95,9.6-10.9Z"/>
    <path class="cls-8" d="m618.62,71.13l2.8-8.55c.09-.29-.06-.6-.35-.69,0,0-2.51-1.21-4.16-1.76-1.65-.54-4.39-1.05-4.39-1.05-.29-.09-.6.06-.69.35l-2.8,8.55c-.09.29.06.6.35.69l8.55,2.8c.29.09.6-.06.69-.35Z"/>
    <path class="cls-10" d="m619.14,71.95l-.3-1.47s-2.66-.58-4.87-1.3h-.02c-2.2-.73-4.71-1.84-4.71-1.84l-1.07,1.02,10.98,3.6Z"/>
    <path class="cls-2" d="m619.14,71.95l-.3-1.47,2.59-7.91c.09-.29-.06-.6-.35-.69,0,0-2.51-1.21-4.16-1.76l-3.28,10.02,5.51,1.8Z"/>
    <path class="cls-2" d="m617.29,77.32c1.95-5.95.54-8.71-2.91-9.84-.49-.16-.95-.27-1.39-.31,3.21,1.73,4.3,5.22,2.15,11.79-.87,2.65-2.43,5.21-4.15,7.4,2.31-2.02,5.11-5.43,6.3-9.04Z"/>
    <ellipse class="cls-1" cx="607.55" cy="81.97" rx=".39" ry="2.04" transform="translate(-2.14 17.85) rotate(-1.68)"/>
  </g>
  <g>
    <path class="cls-9" d="m864,214.63c-2.78,5.61-1.78,8.54,1.46,10.15,3.24,1.61,5.69.39,8.47-5.22,2.78-5.61,2.38-13.72,1.13-14.34-1.25-.62-8.28,3.8-11.06,9.41Z"/>
    <path class="cls-8" d="m861.79,220.56l-4,8.06c-.14.27-.02.6.25.74,0,0,2.31,1.56,3.87,2.33,1.56.77,4.2,1.67,4.2,1.67.27.14.6.02.74-.25l4-8.06c.14-.27.02-.6-.25-.74l-8.06-4c-.27-.14-.6-.02-.74.25Z"/>
    <path class="cls-10" d="m861.4,219.67l.09,1.5s2.55.96,4.63,1.99h.02c2.07,1.04,4.4,2.5,4.4,2.5l1.21-.85-10.34-5.14Z"/>
    <path class="cls-2" d="m861.4,219.67l.09,1.5-3.7,7.45c-.14.27-.02.6.25.74,0,0,2.31,1.56,3.87,2.33l4.69-9.45-5.19-2.58Z"/>
    <path class="cls-2" d="m864,214.63c-2.78,5.61-1.78,8.54,1.46,10.15.46.23.9.4,1.33.51-2.93-2.17-3.51-5.79-.44-11.98,1.24-2.5,3.15-4.81,5.17-6.72-2.58,1.67-5.84,4.63-7.53,8.04Z"/>
    <ellipse class="cls-1" cx="874.3" cy="211.42" rx="2.04" ry=".39" transform="translate(564.11 1055.74) rotate(-83.42)"/>
  </g>
  <g>
    <path class="cls-9" d="m868.83,519.96c5.83,2.26,8.67,1,9.98-2.38,1.31-3.38-.13-5.7-5.97-7.96-5.83-2.26-13.88-1.12-14.38.18s4.54,7.9,10.37,10.16Z"/>
    <path class="cls-8" d="m874.94,521.62l8.39,3.25c.28.11.6-.03.71-.31,0,0,1.35-2.44,1.97-4.06.63-1.62,1.28-4.33,1.28-4.33.11-.28-.03-.6-.31-.71l-8.39-3.25c-.28-.11-.6.03-.71.31l-3.25,8.39c-.11.28.03.6.31.71Z"/>
    <path class="cls-10" d="m874.1,522.09l1.48-.22s.72-2.63,1.56-4.79v-.02c.85-2.16,2.09-4.61,2.09-4.61l-.96-1.13-4.18,10.77Z"/>
    <path class="cls-2" d="m874.1,522.09l1.48-.22,7.76,3.01c.28.11.6-.03.71-.31,0,0,1.35-2.44,1.97-4.06l-9.83-3.81-2.09,5.4Z"/>
    <path class="cls-2" d="m868.83,519.96c5.84,2.26,8.67,1,9.98-2.38.19-.48.32-.94.39-1.37-1.9,3.12-5.44,4.02-11.89,1.52-2.6-1.01-5.08-2.7-7.16-4.54,1.89,2.42,5.15,5.39,8.69,6.77Z"/>
    <ellipse class="cls-1" cx="864.7" cy="509.99" rx=".39" ry="2.04" transform="translate(334.17 1362.25) rotate(-88.63)"/>
  </g>
  <g>
    <path class="cls-9" d="m235.26,578.8c2.29-5.82,1.05-8.66-2.32-9.99-3.37-1.33-5.7.1-8,5.92-2.29,5.82-1.2,13.87.1,14.38s7.92-4.49,10.22-10.32Z"/>
    <path class="cls-8" d="m236.95,572.7l3.3-8.38c.11-.28-.03-.6-.31-.71,0,0-2.43-1.36-4.05-2-1.62-.64-4.32-1.3-4.32-1.3-.28-.11-.6.03-.71.31l-3.3,8.38c-.11.28.03.6.31.71l8.38,3.3c.28.11.6-.03.71-.31Z"/>
    <path class="cls-10" d="m237.42,573.55l-.21-1.48s-2.63-.74-4.78-1.59h-.02c-2.15-.86-4.6-2.12-4.6-2.12l-1.13.95,10.75,4.23Z"/>
    <path class="cls-2" d="m237.42,573.55l-.21-1.48,3.05-7.74c.11-.28-.03-.6-.31-.71,0,0-2.43-1.36-4.05-2l-3.87,9.81,5.39,2.12Z"/>
    <path class="cls-2" d="m235.26,578.8c2.29-5.82,1.05-8.66-2.32-9.99-.48-.19-.93-.32-1.37-.39,3.11,1.91,3.99,5.46,1.46,11.9-1.02,2.6-2.73,5.06-4.58,7.14,2.43-1.88,5.42-5.12,6.82-8.65Z"/>
    <ellipse class="cls-1" cx="225.26" cy="582.87" rx="2.04" ry=".39" transform="translate(-363.97 790.93) rotate(-88.32)"/>
  </g>
  <g>
    <path class="cls-3" d="m424.12,90.13c.21-6.25-1.91-8.51-5.53-8.63-3.62-.12-5.34,2-5.55,8.26-.21,6.25,3.52,13.47,4.91,13.52,1.39.05,5.96-6.89,6.18-13.14Z"/>
    <path class="cls-8" d="m423.68,83.82l.31-9c.01-.3-.23-.56-.53-.57,0,0-2.75-.47-4.49-.52-1.74-.06-4.51.22-4.51.22-.3-.01-.56.23-.57.53l-.31,9c-.01.3.23.56.53.57l9,.31c.3.01.56-.23.57-.53Z"/>
    <path class="cls-10" d="m424.4,84.46l-.7-1.33s-2.72.18-5.04.11h-.02c-2.31-.08-5.04-.45-5.04-.45l-.75,1.28,11.54.39Z"/>
    <path class="cls-2" d="m424.4,84.46l-.7-1.33.28-8.32c.01-.3-.23-.56-.53-.57,0,0-2.75-.47-4.49-.52l-.36,10.54,5.79.2Z"/>
    <path class="cls-2" d="m424.12,90.13c.21-6.25-1.91-8.51-5.53-8.63-.51-.02-.99,0-1.42.09,3.57.76,5.59,3.81,5.35,10.72-.1,2.79-.88,5.68-1.92,8.26,1.66-2.58,3.4-6.64,3.53-10.44Z"/>
    <ellipse class="cls-1" cx="416.07" cy="97.32" rx=".39" ry="2.04" transform="translate(-9.79 132.38) rotate(-17.87)"/>
  </g>
  <g>
    <path class="cls-3" d="m846.46,285.38c-3.97,4.84-3.65,7.92-.85,10.22s5.46,1.65,9.43-3.19,5.39-12.84,4.31-13.72c-1.08-.88-8.92,1.85-12.89,6.69Z"/>
    <path class="cls-8" d="m842.98,290.67l-5.71,6.96c-.19.24-.16.58.08.77,0,0,1.9,2.04,3.24,3.14,1.34,1.1,3.72,2.57,3.72,2.57.24.19.58.16.77-.08l5.71-6.96c.19-.24.16-.58-.08-.77l-6.96-5.71c-.24-.19-.58-.16-.77.08Z"/>
    <path class="cls-10" d="m842.8,289.72l-.25,1.48s2.27,1.51,4.07,2.98h.02c1.79,1.48,3.73,3.43,3.73,3.43l1.37-.56-8.93-7.32Z"/>
    <path class="cls-2" d="m842.8,289.72l-.25,1.48-5.28,6.43c-.19.24-.16.58.08.77,0,0,1.9,2.04,3.24,3.14l6.69-8.15-4.48-3.67Z"/>
    <path class="cls-2" d="m846.46,285.38c-3.97,4.84-3.65,7.92-.85,10.22.4.33.79.59,1.19.8-2.37-2.77-2.12-6.42,2.26-11.77,1.77-2.16,4.15-3.98,6.54-5.39-2.89,1.05-6.73,3.21-9.14,6.15Z"/>
    <ellipse class="cls-1" cx="857.22" cy="284.57" rx="2.04" ry=".39" transform="translate(302.4 997.3) rotate(-70.47)"/>
  </g>
  <g>
    <path class="cls-3" d="m579.04,547.07c1.59,6.05,4.28,7.6,7.78,6.68,3.5-.92,4.54-3.45,2.95-9.5-1.59-6.05-7.23-11.9-8.58-11.54s-3.74,8.31-2.15,14.36Z"/>
    <path class="cls-8" d="m581.28,553l2.29,8.71c.08.29.38.47.67.39,0,0,2.77-.34,4.45-.78,1.68-.44,4.26-1.5,4.26-1.5.29-.08.47-.38.39-.67l-2.29-8.71c-.08-.29-.38-.47-.67-.39l-8.71,2.29c-.29.08-.47.38-.39.67Z"/>
    <path class="cls-10" d="m580.4,552.59l1.05,1.07s2.55-.96,4.8-1.55h.02c2.24-.59,4.96-1.02,4.96-1.02l.35-1.44-11.17,2.94Z"/>
    <path class="cls-2" d="m580.4,552.59l1.05,1.07,2.12,8.05c.08.29.38.47.67.39,0,0,2.77-.34,4.45-.78l-2.68-10.2-5.6,1.47Z"/>
    <path class="cls-2" d="m579.04,547.07c1.59,6.05,4.28,7.6,7.78,6.68.5-.13.94-.29,1.34-.49-3.64.29-6.45-2.05-8.21-8.74-.71-2.7-.79-5.69-.53-8.46-.85,2.95-1.35,7.33-.38,11.01Z"/>
    <ellipse class="cls-1" cx="584.69" cy="537.88" rx=".39" ry="2.04" transform="translate(-201.92 426.44) rotate(-34.55)"/>
  </g>
  <g>
    <path class="cls-4" d="m545.03,76.01c2.67-5.66,1.61-8.57-1.67-10.12-3.28-1.54-5.7-.27-8.36,5.39-2.67,5.66-2.09,13.76-.83,14.36,1.26.59,8.2-3.97,10.87-9.63Z"/>
    <path class="cls-8" d="m547.12,70.03l3.84-8.14c.13-.28.01-.6-.26-.73,0,0-2.34-1.51-3.91-2.26-1.57-.74-4.23-1.58-4.23-1.58-.28-.13-.6-.01-.73.26l-3.84,8.14c-.13.28-.01.6.26.73l8.14,3.84c.28.13.6.01.73-.26Z"/>
    <path class="cls-10" d="m547.52,70.91l-.12-1.49s-2.57-.91-4.67-1.89h-.02c-2.09-1-4.45-2.41-4.45-2.41l-1.19.88,10.45,4.92Z"/>
    <path class="cls-2" d="m547.52,70.91l-.12-1.49,3.55-7.53c.13-.28.01-.6-.26-.73,0,0-2.34-1.51-3.91-2.26l-4.49,9.54,5.24,2.47Z"/>
    <path class="cls-2" d="m545.03,76.01c2.67-5.66,1.61-8.57-1.67-10.12-.46-.22-.91-.38-1.34-.48,2.97,2.11,3.63,5.71.68,11.97-1.19,2.52-3.05,4.87-5.03,6.83,2.54-1.72,5.74-4.75,7.36-8.19Z"/>
    <ellipse class="cls-1" cx="534.79" cy="79.43" rx="2.04" ry=".39" transform="translate(405.33 604.36) rotate(-84.59)"/>
  </g>
  <g>
    <path class="cls-4" d="m866.28,96.03c5.84-2.26,7.08-5.1,5.77-8.48-1.31-3.38-3.94-4.12-9.77-1.86-5.84,2.26-11.01,8.52-10.51,9.82s8.68,2.78,14.51.52Z"/>
    <path class="cls-8" d="m871.92,93.14l8.39-3.25c.28-.11.42-.43.31-.71,0,0-.65-2.71-1.28-4.33-.63-1.62-1.97-4.06-1.97-4.06-.11-.28-.43-.42-.71-.31l-8.39,3.25c-.28.11-.42.43-.31.71l3.25,8.39c.11.28.43.42.71.31Z"/>
    <path class="cls-10" d="m871.61,94.06l.94-1.16s-1.24-2.43-2.07-4.59v-.02c-.84-2.16-1.57-4.81-1.57-4.81l-1.47-.19,4.17,10.77Z"/>
    <path class="cls-2" d="m871.61,94.06l.94-1.16,7.76-3.01c.28-.11.42-.43.31-.71,0,0-.65-2.71-1.28-4.33l-9.83,3.81,2.09,5.4Z"/>
    <path class="cls-2" d="m866.28,96.03c5.84-2.26,7.08-5.1,5.77-8.48-.19-.48-.4-.9-.64-1.28.7,3.58-1.31,6.64-7.76,9.13-2.6,1.01-5.57,1.43-8.35,1.47,3.03.51,7.44.52,10.98-.85Z"/>
    <ellipse class="cls-1" cx="856.51" cy="91.45" rx="2.04" ry=".39" transform="translate(150.04 584.27) rotate(-40.99)"/>
  </g>
  <g>
    <path class="cls-4" d="m69.32,150.68c-.94,6.19.91,8.68,4.49,9.22,3.58.54,5.54-1.37,6.47-7.56.94-6.19-1.93-13.79-3.3-14-1.38-.21-6.72,6.15-7.66,12.33Z"/>
    <path class="cls-8" d="m69.03,157.01l-1.35,8.9c-.05.3.16.58.46.63,0,0,2.68.78,4.39,1.04,1.72.26,4.51.31,4.51.31.3.05.58-.16.63-.46l1.35-8.9c.05-.3-.16-.58-.46-.63l-8.9-1.35c-.3-.05-.58.16-.63.46Z"/>
    <path class="cls-10" d="m68.39,156.29l.54,1.4s2.72.13,5.02.48h.02c2.29.35,4.95,1.03,4.95,1.03l.89-1.18-11.42-1.73Z"/>
    <path class="cls-2" d="m68.39,156.29l.54,1.4-1.25,8.23c-.05.3.16.58.46.63,0,0,2.68.78,4.39,1.04l1.58-10.43-5.73-.87Z"/>
    <path class="cls-2" d="m69.32,150.68c-.94,6.19.91,8.68,4.49,9.22.51.08.98.1,1.43.08-3.45-1.17-5.11-4.44-4.07-11.27.42-2.76,1.53-5.54,2.87-7.98-1.95,2.37-4.15,6.2-4.72,9.96Z"/>
    <ellipse class="cls-1" cx="78.15" cy="144.48" rx=".39" ry="2.04" transform="translate(-26.57 17.92) rotate(-11.2)"/>
  </g>
  <g>
    <path class="cls-4" d="m450.35,567.62c-1.28-6.13-3.88-7.81-7.43-7.07-3.54.74-4.71,3.22-3.43,9.34s6.62,12.25,7.98,11.96c1.36-.29,4.15-8.11,2.87-14.23Z"/>
    <path class="cls-8" d="m448.42,561.59l-1.84-8.81c-.06-.3-.35-.49-.65-.43,0,0-2.78.2-4.48.56-1.7.36-4.33,1.28-4.33,1.28-.3.06-.49.35-.43.65l1.84,8.81c.06.3.35.49.65.43l8.81-1.84c.3-.06.49-.35.43-.65Z"/>
    <path class="cls-10" d="m449.27,562.04l-.99-1.12s-2.6.83-4.87,1.3h-.02c-2.27.48-5,.77-5,.77l-.42,1.42,11.3-2.36Z"/>
    <path class="cls-2" d="m449.27,562.04l-.99-1.12-1.7-8.15c-.06-.3-.35-.49-.65-.43,0,0-2.78.2-4.48.56l2.16,10.32,5.67-1.19Z"/>
    <path class="cls-2" d="m450.35,567.62c-1.28-6.13-3.88-7.81-7.43-7.07-.5.11-.96.24-1.36.43,3.65-.11,6.34,2.37,7.75,9.14.57,2.73.5,5.73.1,8.48,1-2.9,1.72-7.25.94-10.98Z"/>
    <ellipse class="cls-1" cx="444.24" cy="576.52" rx=".39" ry="2.04" transform="translate(-236.36 318.65) rotate(-31.63)"/>
  </g>
  <g>
    <path class="cls-4" d="m304.08,543.05c2.39,5.78,5.26,6.96,8.61,5.57s4.03-4.03,1.64-9.81c-2.39-5.78-8.77-10.81-10.06-10.28-1.29.53-2.58,8.74-.19,14.52Z"/>
    <path class="cls-8" d="m307.1,548.62l3.44,8.32c.12.28.44.41.72.3,0,0,2.7-.71,4.3-1.38,1.61-.66,4.02-2.06,4.02-2.06.28-.12.41-.44.3-.72l-3.44-8.32c-.12-.28-.44-.41-.72-.3l-8.32,3.44c-.28.12-.41.44-.3.72Z"/>
    <path class="cls-10" d="m306.17,548.33l1.18.92s2.4-1.29,4.54-2.18h.02c2.14-.89,4.77-1.68,4.77-1.68l.15-1.47-10.67,4.42Z"/>
    <path class="cls-2" d="m306.17,548.33l1.18.92,3.18,7.69c.12.28.44.41.72.3,0,0,2.7-.71,4.3-1.38l-4.03-9.74-5.35,2.22Z"/>
    <path class="cls-2" d="m304.08,543.05c2.39,5.78,5.26,6.96,8.61,5.57.47-.2.9-.42,1.26-.67-3.56.78-6.67-1.16-9.31-7.55-1.07-2.58-1.55-5.54-1.67-8.32-.44,3.04-.35,7.45,1.11,10.96Z"/>
    <ellipse class="cls-1" cx="308.44" cy="533.18" rx=".39" ry="2.04" transform="translate(-278.53 346.41) rotate(-42.3)"/>
  </g>
  <g>
    <path class="cls-6" d="m839.8,458.86c5.97,1.88,8.71.43,9.8-3.02,1.09-3.45-.5-5.68-6.47-7.56-5.97-1.88-13.92-.22-14.34,1.11-.42,1.33,5.04,7.59,11.01,9.47Z"/>
    <path class="cls-8" d="m846.01,460.12l8.59,2.7c.29.09.6-.07.69-.36,0,0,1.18-2.52,1.71-4.18.52-1.66,1-4.4,1-4.4.09-.29-.07-.6-.36-.69l-8.59-2.7c-.29-.09-.6.07-.69.36l-2.7,8.59c-.09.29.07.6.36.69Z"/>
    <path class="cls-10" d="m845.2,460.64l1.46-.32s.55-2.67,1.25-4.88v-.02c.7-2.21,1.79-4.74,1.79-4.74l-1.03-1.06-3.47,11.02Z"/>
    <path class="cls-2" d="m845.2,460.64l1.46-.32,7.94,2.5c.29.09.6-.07.69-.36,0,0,1.18-2.52,1.71-4.18l-10.06-3.17-1.74,5.53Z"/>
    <path class="cls-2" d="m839.8,458.86c5.97,1.88,8.71.43,9.8-3.02.15-.49.25-.95.3-1.4-1.69,3.23-5.17,4.37-11.76,2.29-2.66-.84-5.24-2.36-7.44-4.06,2.05,2.29,5.48,5.05,9.11,6.19Z"/>
    <ellipse class="cls-1" cx="835.03" cy="449.18" rx="2.04" ry=".39" transform="translate(-17.76 34.7) rotate(-2.36)"/>
  </g>
  <g>
    <path class="cls-3" d="m71.54,455.11c-4.02-4.79-7.11-5.05-9.89-2.73-2.77,2.33-2.63,5.06,1.39,9.85,4.02,4.79,11.62,7.67,12.69,6.78,1.07-.9-.17-9.11-4.19-13.9Z"/>
    <path class="cls-8" d="m66.98,450.7l-5.78-6.9c-.2-.23-.54-.26-.78-.07,0,0-2.36,1.49-3.69,2.61-1.33,1.12-3.21,3.18-3.21,3.18-.23.2-.26.54-.07.78l5.78,6.9c.2.23.54.26.78.07l6.9-5.78c.23-.2.26-.54.07-.78Z"/>
    <path class="cls-10" d="m67.95,450.7l-1.4-.52s-1.9,1.96-3.68,3.45h-.02c-1.77,1.5-4.05,3.05-4.05,3.05l.3,1.45,8.85-7.42Z"/>
    <path class="cls-2" d="m67.95,450.7l-1.4-.52-5.35-6.38c-.2-.23-.54-.26-.78-.07,0,0-2.36,1.49-3.69,2.61l6.78,8.08,4.44-3.72Z"/>
    <path class="cls-2" d="m71.54,455.11c-4.02-4.8-7.11-5.05-9.89-2.73-.39.33-.73.67-1,1.02,3.16-1.82,6.71-.9,11.15,4.4,1.79,2.14,3.15,4.81,4.09,7.43-.49-3.03-1.91-7.21-4.35-10.12Z"/>
    <ellipse class="cls-1" cx="70.35" cy="465.83" rx=".39" ry="2.04" transform="translate(-367.68 292.4) rotate(-59.81)"/>
  </g>
  <g>
    <path class="cls-9" d="m336.67,77.4c2.85-5.57,1.89-8.52-1.34-10.17-3.22-1.65-5.68-.46-8.54,5.11s-2.54,13.69-1.3,14.32,8.33-3.7,11.18-9.27Z"/>
    <path class="cls-8" d="m338.96,71.49l4.1-8.01c.14-.27.03-.6-.24-.74,0,0-2.29-1.59-3.84-2.38-1.55-.79-4.18-1.72-4.18-1.72-.27-.14-.6-.03-.74.24l-4.1,8.01c-.14.27-.03.6.24.74l8.01,4.1c.27.14.6.03.74-.24Z"/>
    <path class="cls-10" d="m339.33,72.39l-.07-1.5s-2.54-.99-4.6-2.05h-.02c-2.06-1.07-4.37-2.56-4.37-2.56l-1.22.84,10.28,5.26Z"/>
    <path class="cls-2" d="m339.33,72.39l-.07-1.5,3.79-7.41c.14-.27.03-.6-.24-.74,0,0-2.29-1.59-3.84-2.38l-4.8,9.39,5.16,2.64Z"/>
    <path class="cls-2" d="m336.67,77.4c2.85-5.57,1.89-8.52-1.34-10.17-.46-.23-.9-.41-1.33-.53,2.9,2.21,3.44,5.83.29,11.98-1.27,2.48-3.21,4.77-5.25,6.66,2.6-1.63,5.9-4.56,7.63-7.95Z"/>
    <ellipse class="cls-1" cx="326.33" cy="80.48" rx="2.04" ry=".39" transform="translate(205.13 393.98) rotate(-82.72)"/>
  </g>
</svg>