<?xml version="1.0" encoding="UTF-8"?><svg id="Calque_3" xmlns="http://www.w3.org/2000/svg" xmlns:xlink="http://www.w3.org/1999/xlink" viewBox="0 0 493.49 381.37"><defs><style>.cls-1{letter-spacing:-.02em;}.cls-2{letter-spacing:-.03em;}.cls-3{letter-spacing:-.03em;}.cls-4{stroke:#562a0c;}.cls-4,.cls-5{fill:none;}.cls-4,.cls-5,.cls-6{stroke-miterlimit:10;}.cls-7{fill:#3a1c13;}.cls-8{fill:#b27d59;}.cls-9,.cls-10{fill:#562a0c;}.cls-5{stroke:#3a1c13;stroke-width:5px;}.cls-10{font-family:HopefulChristmasSolid, 'Hopeful Christmas Solid';font-size:55px;}.cls-6{fill:#fff;stroke:#e8e8e8;stroke-width:2px;}.cls-11{letter-spacing:-.01em;}</style></defs><rect class="cls-7" x="2.57" y="28.33" width="487.97" height="296.41" rx="31.93" ry="31.93"/><rect class="cls-8" x="15.71" y="40.78" width="464.56" height="271.23" rx="24.62" ry="24.62"/><path class="cls-6" d="m24.45,51.8c9.25-24.32,67.25-11.94,89.13-11.94s64.61,17.15,83.29,15.55c18.68-1.61,98.27-21.01,139.06-15.55,40.79,5.46,105.32-9.45,120.25-3.02,14.92,6.43,20.03,52.49,20.53,60.99.5,8.5,2.94,199.87-6.49,210.59-9.43,10.72-25.52,17.92-51.88,21.67-26.36,3.75-34.53,5.31-41,17.64-6.47,12.33-19.4,14.74-25.37,0s-21.75-17.87-36.55-17.87-28.23,3.22-29.73,15.55,3.98,35.38-8.95,32.7c-12.93-2.68,1.12-41.41-16.11-48.77s-36.12-12.34-50.05.53c-13.93,12.87-13.49,35.85-25.37,34.84-19.96-1.68-18.9-25.19-33.33-29.75s-24.87-8.84-38.8-2.95c-13.93,5.9-28.76,31.22-39.7,18.35-10.94-12.87-7.06-22.64-21.48-34.43-14.43-11.79-19.44,15.13-28.05-15.09-3.83-13.45-15.43-130.12-8.14-143.35,17.33-31.45-9.65-57.33,8.74-105.69Z"/><g><line class="cls-4" x1="153.35" y1="104.69" x2="340.14" y2="104.69"/><line class="cls-4" x1="153.35" y1="108.63" x2="340.14" y2="108.63"/><path class="cls-9" d="m244.78,89.86v12.41s-9.08-12.11-14.83-12.41,16.05,12.71,10.29,12.41c-5.75-.3-16.05,0-16.05,0v-2.43l-5.15-3.78s2.72-.76,1.51-2.88-4.24-3.04-6.66-3.34-2.12-2.72,0-2.72,1.21,4.84.91,0c-.3-4.84-4.32-6.66-2.61-8.48s5.94,1.51,8.67,0-.91-2.12.91-1.82,5.75,5.15,8.48,5.15.91-4.24,1.82-2.12,12.71,9.99,12.71,9.99Z"/><path class="cls-9" d="m249.31,89.86v12.41s9.08-12.11,14.83-12.41-16.05,12.71-10.29,12.41c5.75-.3,16.05,0,16.05,0v-2.43l5.15-3.78s-2.72-.76-1.51-2.88,4.24-3.04,6.66-3.34,2.12-2.72,0-2.72-1.21,4.84-.91,0c.3-4.84,4.32-6.66,2.61-8.48s-5.94,1.51-8.67,0,.91-2.12-.91-1.82-5.75,5.15-8.48,5.15-.91-4.24-1.82-2.12-12.71,9.99-12.71,9.99Z"/><line class="cls-4" x1="246.74" y1="50.8" x2="246.74" y2="75.02"/><path class="cls-9" d="m244.78,77.18c0,2.15-1.83,3.9-4.09,3.9s-4.09-1.74-4.09-3.9,1.83-3.9,4.09-3.9,4.09,1.74,4.09,3.9Z"/><path class="cls-9" d="m257.49,75.02c0,2.15-1.83,3.9-4.09,3.9s-4.09-1.74-4.09-3.9,1.83-3.9,4.09-3.9,4.09,1.74,4.09,3.9Z"/><ellipse class="cls-9" cx="248.34" cy="83.26" rx="3.57" ry="3.39"/><path class="cls-4" d="m218.44,102.27s-9.38-8.18-19.68-9.09-16.65,9.6-31.18,9.32c-12.11-.23-11.87-15.53-.61-15.86,11.2-.33,8.26,14.04,1.21,9.57"/><path class="cls-4" d="m274.69,102.27s9.38-8.18,19.68-9.09,16.65,9.6,31.18,9.32c12.11-.23,11.87-15.53.61-15.86-11.2-.33-8.26,14.04-1.21,9.57"/></g><text class="cls-10" transform="translate(23.85 227.39)"><tspan x="0" y="0">La gra</tspan><tspan class="cls-1" x="108.57" y="0">n</tspan><tspan x="129.41" y="0">de </tspan><tspan class="cls-2" x="182.43" y="0">é</tspan><tspan x="198.82" y="0">pop</tspan><tspan class="cls-11" x="262.45" y="0">é</tspan><tspan x="279.39" y="0">e de No</tspan><tspan class="cls-3" x="413.1" y="0">ë</tspan><tspan x="429.21" y="0">l</tspan></text><image width="2000" height="495" transform="translate(73.38 107.19) scale(.17)" xlink:href="../../../../../../../Users/Jade/Downloads/5a1c2d93f65d84088faf13cd.png"/><line class="cls-5" x1="246.74" y1="28.33" x2="246.74" y2="0"/><g><line class="cls-4" x1="153.35" y1="262.85" x2="340.14" y2="262.85"/><line class="cls-4" x1="153.35" y1="258.92" x2="340.14" y2="258.92"/><path class="cls-9" d="m244.78,277.69v-12.41s-9.08,12.11-14.83,12.41,16.05-12.71,10.29-12.41c-5.75.3-16.05,0-16.05,0v2.43l-5.15,3.78s2.72.76,1.51,2.88-4.24,3.04-6.66,3.34-2.12,2.72,0,2.72,1.21-4.84.91,0c-.3,4.84-4.32,6.66-2.61,8.48s5.94-1.51,8.67,0-.91,2.12.91,1.82,5.75-5.15,8.48-5.15.91,4.24,1.82,2.12,12.71-9.99,12.71-9.99Z"/><path class="cls-9" d="m249.31,277.69v-12.41s9.08,12.11,14.83,12.41-16.05-12.71-10.29-12.41c5.75.3,16.05,0,16.05,0v2.43l5.15,3.78s-2.72.76-1.51,2.88,4.24,3.04,6.66,3.34,2.12,2.72,0,2.72-1.21-4.84-.91,0c.3,4.84,4.32,6.66,2.61,8.48s-5.94-1.51-8.67,0,.91,2.12-.91,1.82-5.75-5.15-8.48-5.15-.91,4.24-1.82,2.12-12.71-9.99-12.71-9.99Z"/><path class="cls-9" d="m244.78,290.37c0-2.15-1.83-3.9-4.09-3.9s-4.09,1.74-4.09,3.9,1.83,3.9,4.09,3.9,4.09-1.74,4.09-3.9Z"/><path class="cls-9" d="m257.49,292.52c0-2.15-1.83-3.9-4.09-3.9s-4.09,1.74-4.09,3.9,1.83,3.9,4.09,3.9,4.09-1.74,4.09-3.9Z"/><ellipse class="cls-9" cx="248.34" cy="284.29" rx="3.57" ry="3.39"/><path class="cls-4" d="m218.44,265.27s-9.38,8.18-19.68,9.09-16.65-9.6-31.18-9.32c-12.11.23-11.87,15.53-.61,15.86,11.2.33,8.26-14.04,1.21-9.57"/><path class="cls-4" d="m274.69,265.27s9.38,8.18,19.68,9.09,16.65-9.6,31.18-9.32c12.11.23,11.87,15.53.61,15.86-11.2.33-8.26-14.04-1.21-9.57"/></g></svg>