<?xml version="1.0" encoding="UTF-8"?><svg id="pancarte_test" xmlns="http://www.w3.org/2000/svg" viewBox="0 0 712.64 182.89"><defs><style>.cls-1{fill:#fff;}.cls-2{letter-spacing:-.01em;}.cls-3{fill:#aa7143;stroke:#74431b;stroke-miterlimit:10;stroke-width:3px;}.cls-4{font-family:RemilyFreeTrial, 'Remily Free Trial';font-size:94.77px;}</style></defs><polygon class="cls-3" points="507.9 141.29 155.23 155.94 149.72 56.39 502.39 41.74 554.41 88.71 507.9 141.29"/><text class="cls-4" transform="translate(254.92 137) rotate(-2.57) scale(1.11 1) skewX(.54)"><tspan class="cls-2" x="0" y="0">U</tspan><tspan x="43.78" y="0">SINE</tspan></text><path class="cls-1" d="m524.07,38.84c-45.18-6.03-363.66,11.44-377.57,16.96-13.91,5.52-6.19,25.15-5.59,38.6.61,13.44,33.21-6.71,41.09-12.95,7.88-6.23,35.8-22.8,34.86-13.17-.94,9.63-21.36,28.92,1.47,26.45,22.82-2.47,33.67-16.6,49.72-20.17,16.04-3.57,2.01-.09,18.71,4.71,16.7,4.8,18.12-5.51,36.3-10.03,18.18-4.52,20.84-1.11,47.44,4.76,26.6,5.87,40.31-17.45,48.23-20.83,7.92-3.38,20.45-3.44,33.2.53,6.75,2.1,80.29,42.01,102.67,38.21,19.88-3.38-9.27-50.22-30.52-53.05Z"/></svg>