<?xml version="1.0" encoding="UTF-8"?><svg id="pancarte_test" xmlns="http://www.w3.org/2000/svg" viewBox="0 0 778.86 179.88"><defs><style>.cls-1{fill:#fff;}.cls-2{font-family:BabyHolidayRegular, 'Baby Holiday';font-size:81.23px;}.cls-3{fill:#a84545;stroke:#74431b;stroke-miterlimit:10;stroke-width:3px;}</style></defs><polygon class="cls-3" points="133.33 43.43 596.25 24.14 603.23 150.15 140.31 169.44 72.14 110.09 133.33 43.43"/><text class="cls-2" transform="translate(216.45 142.49) rotate(-2.57) scale(1.11 1) skewX(.54)"><tspan x="0" y="0">CHAMBRE</tspan></text><path class="cls-1" d="m216.86,39.21c44.5-14.03,366.53-23.77,381.26-17.12,14.72,6.65,9.69,36.7,10.94,56.76,1.25,20.06-34.26-6.25-43.02-14.64-8.77-8.39-39.08-29.88-36.8-15.67,2.28,14.21,25.43,40.6,2.19,39.49-23.24-1.11-36.09-20.9-52.68-24.42-16.6-3.51-2.03.09-18.13,9.1-16.1,9.01-18.95-6.16-37.82-10.85-18.87-4.68-21.07.69-46.95,12.39-25.88,11.71-42.87-21.43-51.28-25.57-8.42-4.14-21-2.82-33.24,4.51s-118.96.04-74.46-13.98Z"/><path class="cls-1" d="m284.96,34.35c-10.33-3.04-140.73.67-154.26,6.93-13.54,6.26-7.36,34.08,9.22,30.78,16.58-3.3,26.8-23.17,41.07-20.26s18.18,5.17,26.7,6.47c8.53,1.3,45.17,7.78,55.33-7.27,10.16-15.05,32.27-13.61,21.94-16.65Z"/></svg>