<?xml version="1.0" encoding="UTF-8"?><svg id="pancarte_test" xmlns="http://www.w3.org/2000/svg" viewBox="0 0 718.95 201.81"><defs><style>.cls-1,.cls-2{fill:#fff;}.cls-3{fill:#8c6e4b;}.cls-2{font-family:HolliesMarker-Regular, 'Hollies Marker';font-size:94.75px;}</style></defs><polygon class="cls-3" points="598.97 185.52 36.44 168.6 40.78 40.12 603.31 57.05 679.83 122.68 598.97 185.52"/><text class="cls-2" transform="translate(119.96 147.13) rotate(1.57) scale(1.11 1) skewX(-.33)"><tspan x="0" y="0">CANTINE</tspan></text><path class="cls-1" d="m618.96,55.95c-15.91-10.29-560.54-22.17-577.14-15.8-16.6,6.37-38.71,54.47-1.87,55.48,36.84,1.01,39.48-35.52,76.5-30.44,37.02,5.08,42,16.12,77.59,17.09,35.59.97,55.84-8.84,82.51-16.77,26.66-7.94,50.1-20.58,84.34-10.29,34.23,10.29,25.34,11.94,48.4,22.76,23.06,10.82,40.09,26.15,66.97,18.75,26.88-7.4,81.82,3.6,110.15,13.86,28.33,10.27,48.48-44.35,32.57-54.64Z"/></svg>