<?xml version="1.0" encoding="UTF-8"?><svg id="pancarte_test" xmlns="http://www.w3.org/2000/svg" viewBox="0 0 744.06 186.27"><defs><style>.cls-1{fill:#fff;}.cls-2{fill:#cc7e3e;stroke:#74431b;stroke-miterlimit:10;stroke-width:3px;}.cls-3{font-family:SANTAINCHRISTMASRegular, 'SANTA IN CHRISTMAS';font-size:81.22px;}</style></defs><polygon class="cls-2" points="529.76 157.68 139.63 145.48 144.89 31.63 535.02 43.82 586.98 101.59 529.76 157.68"/><path class="cls-1" d="m149.24,17.56c8.94-5.11,382.92,16.7,394.39,21.36s57.42,21.63,54.42,40.74c-3,19.12-30.76,38.29-39.61,15.85s-8.06-42.14-25.84-39.21-32.17,10.06-48.98,15.1-33.33-13.07-46.4-21.8c-13.07-8.73-50.1-4.52-69.77,3.61-19.67,8.13-93.03-14.13-103.17-18.28-10.14-4.15-37.15-9.85-45.18,8.75-8.03,18.6-24.1-3.54-32.67,7.64-8.57,11.18-10.22,27.58-17.99,35.6-7.77,8.02-10.36,21.17-20.6,14.21-10.24-6.96-7.53-78.46,1.41-83.57Z"/><text class="cls-3" transform="translate(242.44 119.63) rotate(1.57) scale(1.11 1) skewX(-.33)"><tspan x="0" y="0">ENCLOS</tspan></text></svg>