<?xml version="1.0" encoding="UTF-8"?><svg id="pancarte_test" xmlns="http://www.w3.org/2000/svg" viewBox="0 0 712.64 173.52"><defs><style>.cls-1,.cls-2{fill:#fff;}.cls-3{fill:#8c0404;stroke:#74431b;stroke-miterlimit:10;stroke-width:3px;}.cls-2{font-family:Candera-Regular, Candera;font-size:94.74px;}</style></defs><polygon class="cls-3" points="167.35 41.44 548.27 42.8 548.27 156.53 167.35 155.18 114.09 98.99 167.35 41.44"/><text class="cls-2" transform="translate(255.81 133.46) scale(1.11 1)"><tspan x="0" y="0">BUREAU</tspan></text><path class="cls-1" d="m551.19,42.6c-11.12-3.4-376.44-6.8-391.13-1.16-14.69,5.65-60.21,40.06-54.69,49.23,5.52,9.16,16.02,36.82,27.32,27.68,11.29-9.14,15.85-53.44,28.14-42.19,12.28,11.25,8.12,33.05,24.17,22.97,16.05-10.08,22.79-22.74,33.29-30.47s29.72-1.41,36.85.47c7.13,1.88,20.41,11.51,34.48,11.96s47.36-18.29,59.44-18.53c12.09-.23,26.95,18.07,37.65,18.53s42.47-10.6,49.53-14.31c7.06-3.71,26.55-15,38.44-13.6,11.89,1.41,31.31,16.73,40.82,21.57,9.51,4.83,29.4,6.56,35.69-.94,6.29-7.5,11.12-27.81,0-31.21Z"/></svg>