<?xml version="1.0" encoding="UTF-8"?><svg id="pancarte_test" xmlns="http://www.w3.org/2000/svg" viewBox="0 0 674.8 194.58"><defs><style>.cls-1,.cls-2{fill:#fff;}.cls-3{letter-spacing:-.12em;}.cls-2{font-family:MAGICCHRISTMAS, 'MAGIC CHRISTMAS';font-size:94.75px;}.cls-4{fill:#b20404;stroke:#74431b;stroke-miterlimit:10;stroke-width:3px;}</style></defs><polygon class="cls-4" points="153.62 53.98 541.77 55.39 541.77 174.05 153.62 172.63 99.35 114.01 153.62 53.98"/><path class="cls-1" d="m153.55,38.08c13.3-5.26,199.5,5.46,199.5,5.46,0,0,173.24-1.59,189.76,5.19,16.52,6.79.65,59.12-34.92,41.26-35.57-17.86-49.16-33.71-68.74-28.62-19.58,5.09-42.43,2.36-53.75-2.17s-47.34-9.03-76.77,0c-29.42,9.04-48.86,9.92-63.57,1.07-14.7-8.84-28.34,29.31-54.79,28.75-26.45-.56-50.02-45.7-36.72-50.96Z"/><path class="cls-1" d="m94.13,86.85c.18-5.37,49.13-44.37,59.52-48.77,10.39-4.4,20.15,22.34,2.13,25.26-18.02,2.92-35.36,21.21-31.54,32.1,3.81,10.89-14.05,26.82-23.95,19.51-9.91-7.31-6.34-22.73-6.16-28.1Z"/><text class="cls-2" transform="translate(225.34 139.17) rotate(1.57) scale(1.11 1) skewX(-.33)"><tspan class="cls-3" x="0" y="0">S</tspan><tspan x="34.21" y="0">ALON</tspan></text></svg>